<?xml version="1.0" encoding="UTF-8" standalone="no"?>
<!-- Generator: Adobe Illustrator 19.0.0, SVG Export Plug-In . SVG Version: 6.00 Build 0)  -->

<svg
   xmlns:dc="http://purl.org/dc/elements/1.1/"
   xmlns:cc="http://creativecommons.org/ns#"
   xmlns:rdf="http://www.w3.org/1999/02/22-rdf-syntax-ns#"
   xmlns:svg="http://www.w3.org/2000/svg"
   xmlns="http://www.w3.org/2000/svg"
   xmlns:sodipodi="http://sodipodi.sourceforge.net/DTD/sodipodi-0.dtd"
   xmlns:inkscape="http://www.inkscape.org/namespaces/inkscape"
   version="1.1"
   id="Layer_1"
   x="0px"
   y="0px"
   viewBox="0 0 330 330"
   style="enable-background:new 0 0 330 330;"
   xml:space="preserve"
   sodipodi:docname="worm.svg"
   inkscape:version="0.92.4 (5da689c313, 2019-01-14)"><metadata
   id="metadata52"><rdf:RDF><cc:Work
       rdf:about=""><dc:format>image/svg+xml</dc:format><dc:type
         rdf:resource="http://purl.org/dc/dcmitype/StillImage" /></cc:Work></rdf:RDF></metadata><defs
   id="defs50" /><sodipodi:namedview
   pagecolor="#ffffff"
   bordercolor="#666666"
   borderopacity="1"
   objecttolerance="10"
   gridtolerance="10"
   guidetolerance="10"
   inkscape:pageopacity="0"
   inkscape:pageshadow="2"
   inkscape:window-width="1366"
   inkscape:window-height="706"
   id="namedview48"
   showgrid="false"
   inkscape:zoom="0.71515152"
   inkscape:cx="363.87099"
   inkscape:cy="-105.79601"
   inkscape:window-x="-8"
   inkscape:window-y="-8"
   inkscape:window-maximized="1"
   inkscape:current-layer="Layer_1" />
<g
   id="XMLID_1299_"
   transform="translate(-1.398312,12.584746)">
	<circle
   id="XMLID_1300_"
   style="fill:#00d7df"
   cx="270"
   cy="255"
   r="60" />
	<circle
   id="XMLID_1301_"
   style="fill:#ea348b"
   cx="220"
   cy="255"
   r="60" />
	<path
   id="XMLID_1302_"
   style="fill:#af2768"
   d="m 220,195 c -33.137,0 -60,26.863 -60,60 0,33.137 26.863,60 60,60"
   inkscape:connector-curvature="0" />
	<circle
   id="XMLID_1303_"
   style="fill:#ffda44"
   cx="170"
   cy="255"
   r="60" />
	<circle
   id="XMLID_1304_"
   style="fill:#ff9811"
   cx="120"
   cy="245"
   r="60" />
	<path
   id="XMLID_1305_"
   style="fill:#ff5023"
   d="m 120,185 c -33.137,0 -60,26.863 -60,60 0,33.137 26.863,60 60,60"
   inkscape:connector-curvature="0" />
	<path
   id="XMLID_1306_"
   style="fill:#ffda44"
   d="M 121.134,17.153 C 105.75,11 88.291,18.483 82.138,33.866 c -4.123,10.308 -2.117,21.543 4.28,29.689 l -12.636,31.591 13.927,5.57 13.928,5.571 12.636,-31.59 c 10.25,-1.488 19.451,-8.24 23.574,-18.548 6.152,-15.382 -1.33,-32.842 -16.713,-38.996 z"
   inkscape:connector-curvature="0" />
	<circle
   id="XMLID_27_"
   style="fill:#003638"
   cx="109.992"
   cy="45.007999"
   r="10" />
	<path
   id="XMLID_1307_"
   style="fill:#ffda44"
   d="M 53.582,63.555 C 59.978,55.409 61.985,44.174 57.862,33.866 51.708,18.483 34.249,11 18.866,17.153 3.483,23.306 -4,40.767 2.154,56.15 6.277,66.458 15.478,73.21 25.728,74.698 l 12.636,31.59 13.928,-5.571 13.927,-5.57 z"
   inkscape:connector-curvature="0" />
	<circle
   id="XMLID_25_"
   style="fill:#003638"
   cx="30.007999"
   cy="45.007999"
   r="10" />
	<circle
   id="XMLID_1308_"
   style="fill:#af2768"
   cx="80"
   cy="205"
   r="60" />
	<circle
   id="XMLID_1309_"
   style="fill:#ffda44"
   cx="70"
   cy="145"
   r="70" />
	<path
   id="XMLID_1310_"
   style="fill:#ff9811"
   d="M 70,215 C 31.34,215 0,183.659 0,145 0,106.34 31.34,75 70,75"
   inkscape:connector-curvature="0" />
	<path
   id="XMLID_1311_"
   style="fill:#ffffff"
   d="m 100,145 c 0,16.543 -13.458,30 -30,30 -16.542,0 -30,-13.457 -30,-30 H 20 c 0,27.57 22.43,50 50,50 27.57,0 50,-22.43 50,-50 z"
   inkscape:connector-curvature="0" />
</g>
<g
   id="g17">
</g>
<g
   id="g19">
</g>
<g
   id="g21">
</g>
<g
   id="g23">
</g>
<g
   id="g25">
</g>
<g
   id="g27">
</g>
<g
   id="g29">
</g>
<g
   id="g31">
</g>
<g
   id="g33">
</g>
<g
   id="g35">
</g>
<g
   id="g37">
</g>
<g
   id="g39">
</g>
<g
   id="g41">
</g>
<g
   id="g43">
</g>
<g
   id="g45">
</g>
</svg>